<svg width="28" height="24" viewBox="0 0 28 24" fill="none" xmlns="http://www.w3.org/2000/svg">
<path fill-rule="evenodd" clip-rule="evenodd" d="M7.75 0.4375C5.73129 0.4375 3.90581 0.942037 2.58083 2.17237C1.24328 3.4144 0.5625 5.25881 0.5625 7.625V16.375C0.5625 18.7412 1.24328 20.5856 2.58083 21.8276C3.90581 23.058 5.73129 23.5625 7.75 23.5625H20.25C22.2687 23.5625 24.0942 23.058 25.4191 21.8276C26.7568 20.5856 27.4375 18.7412 27.4375 16.375V7.625C27.4375 5.25881 26.7568 3.4144 25.4191 2.17237C24.0942 0.942037 22.2687 0.4375 20.25 0.4375H7.75ZM23.0356 7.45288C23.4452 7.1363 23.5208 6.54752 23.2041 6.13783C22.8876 5.72811 22.2989 5.65263 21.8891 5.96921L14.9552 11.327C14.3926 11.7619 13.6073 11.7619 13.0445 11.327L6.11075 5.96921C5.70104 5.65263 5.11228 5.72811 4.79569 6.13783C4.4791 6.54752 4.55459 7.1363 4.9643 7.45288L11.8981 12.8107C13.1361 13.7672 14.8638 13.7672 16.1018 12.8107L23.0356 7.45288Z" fill="#233DFF"/>
</svg>
